# xmcd
#
# Track frame offsets:
# 150
# 11850
# 74606
# 101197
# 125130
# 158635
# 201964
# 252488
# 284930
# 325880
# 343431
#
# Disc length: 4728 seconds
#
# Revision: 0
# Processed by: cddbd v1.5.2PL0 Copyright (c) Steve Scherf et al.
# Submitted via: CoinsHifi v1.9e contact@coinshifi.com
#
DISCID=bf12760b
DTITLE=B.B. KING - Now appearing at Ole Miss
DYEAR=1975
DGENRE=Blues
TTITLE0=Intro-B.B. KING Blues Theme Caldonia
TTITLE1=Blues medley
TTITLE2=Hold on
TTITLE3=I got some outside help (I don't really need)
TTITLE4=Darlin' you know I love you
TTITLE5=When I'm wrong
TTITLE6=The thrill is gone
TTITLE7=Never make a move too soon
TTITLE8=Three o'clock in the morning
TTITLE9=Rock me baby
TTITLE10=Guess who
EXTD=
EXTT0=
EXTT1=
EXTT2=
EXTT3=
EXTT4=
EXTT5=
EXTT6=
EXTT7=
EXTT8=
EXTT9=
EXTT10=
PLAYORDER=
